<?xml version="1.0" encoding="UTF-8" standalone="no"?>
<svg
   width="202.47874"
   height="44.282768"
   viewBox="0 0 202.47874 44.282768"
   fill="none"
   version="1.1"
   id="svg12"
   sodipodi:docname="37c3.svg"
   inkscape:version="1.2.2 (b0a8486541, 2022-12-01)"
   xmlns:inkscape="http://www.inkscape.org/namespaces/inkscape"
   xmlns:sodipodi="http://sodipodi.sourceforge.net/DTD/sodipodi-0.dtd"
   xmlns="http://www.w3.org/2000/svg"
   xmlns:svg="http://www.w3.org/2000/svg">
  <defs
     id="defs16" />
  <sodipodi:namedview
     id="namedview14"
     pagecolor="#808080"
     bordercolor="#666666"
     borderopacity="1.0"
     inkscape:showpageshadow="2"
     inkscape:pageopacity="0"
     inkscape:pagecheckerboard="0"
     inkscape:deskcolor="#d1d1d1"
     showgrid="false"
     inkscape:zoom="4.3702648"
     inkscape:cx="98.277797"
     inkscape:cy="24.483642"
     inkscape:window-width="1678"
     inkscape:window-height="882"
     inkscape:window-x="0"
     inkscape:window-y="0"
     inkscape:window-maximized="0"
     inkscape:current-layer="svg12" />
  <path
     d="m 0,29.890767 h 24.08705 v -2.6989 l -17.82358,-1.0381 v -6.3655 l 17.82358,-1.0381 v -2.6989 H 0 V 0 h 28.32535 c 13.5852,0 18.4027,3.182787 18.4027,12.176967 0,5.9504 -4.2875,9.5484 -11.7549,9.9636 v 1.1067 c 8.8153,1.2457 11.7549,3.8743 11.7549,10.5178 0,7.7501 -5.107,10.5177 -19.5575,10.5177 H 0 Z"
     fill="#ffffff"
     id="path2" />
  <path
     d="M 71.77295,18.681467 H 49.99885 V 0 h 45.8611 v 15.913967 l -17.1005,28.3688 h -22.9306 l 15.9457,-25.6013 z"
     fill="#ffffff"
     id="path4" />
  <path
     d="M 98.98075,22.210867 C 98.98075,5.535147 106.30275,0 117.81675,0 h 32.95 v 20.203467 h -30.205 v 5.6038 h 30.205 v 18.4739 h -30.83 c -13.006,0 -20.956,-5.0513 -20.956,-22.0719 z"
     fill="#ffffff"
     id="path6" />
  <path
     d="m 155.75175,29.890767 h 24.087 v -2.6989 l -17.823,-1.0381 v -6.3655 l 17.823,-1.0381 v -2.6989 h -24.087 V 0 h 28.326 c 13.585,0 18.401,3.182787 18.401,12.176967 0,5.9504 -4.288,9.5484 -11.754,9.9636 v 1.1067 c 8.816,1.2457 11.754,3.8743 11.754,10.5178 0,7.7501 -5.107,10.5177 -19.558,10.5177 h -27.169 z"
     fill="#ffffff"
     id="path8" />
</svg>
