<?xml version="1.0" encoding="UTF-8" standalone="no"?>
<!DOCTYPE svg PUBLIC "-//W3C//DTD SVG 1.1//EN"
 "http://www.w3.org/Graphics/SVG/1.1/DTD/svg11.dtd">
<!-- Generated by graphviz version 2.43.0 (0)
 -->
<!-- Title: %3 Pages: 1 -->
<svg width="418pt" height="332pt"
 viewBox="0.00 0.00 417.50 332.00" xmlns="http://www.w3.org/2000/svg" xmlns:xlink="http://www.w3.org/1999/xlink">
<g id="graph0" class="graph" transform="scale(1 1) rotate(0) translate(4 328)">
<title>%3</title>
<polygon fill="black" stroke="transparent" points="-4,4 -4,-328 413.5,-328 413.5,4 -4,4"/>
<!-- Func_STable -->
<g id="node1" class="node">
<title>Func_STable</title>
<polygon fill="lightgreen" stroke="white" points="384.5,-36 280.5,-36 280.5,0 384.5,0 384.5,-36"/>
<text text-anchor="middle" x="332.5" y="-14.3" font-family="Times,serif" font-size="14.00">AES S_table</text>
</g>
<!-- Func_substitution_S -->
<g id="node2" class="node">
<title>Func_substitution_S</title>
<polygon fill="lightgreen" stroke="white" points="409.5,-108 255.5,-108 255.5,-72 409.5,-72 409.5,-108"/>
<text text-anchor="middle" x="332.5" y="-86.3" font-family="Times,serif" font-size="14.00">AES substitution_S</text>
</g>
<!-- Func_substitution_S&#45;&gt;Func_STable -->
<g id="edge1" class="edge">
<title>Func_substitution_S&#45;&gt;Func_STable</title>
<path fill="none" stroke="white" d="M326.58,-71.7C325.79,-63.98 325.56,-54.71 325.9,-46.11"/>
<polygon fill="white" stroke="white" points="329.4,-46.32 326.6,-36.1 322.42,-45.84 329.4,-46.32"/>
</g>
<!-- Func_substitution_S&#45;&gt;Func_STable -->
<g id="edge2" class="edge">
<title>Func_substitution_S&#45;&gt;Func_STable</title>
<path fill="none" stroke="white" d="M338.42,-71.7C339.21,-63.98 339.44,-54.71 339.1,-46.11"/>
<polygon fill="white" stroke="white" points="342.58,-45.84 338.4,-36.1 335.6,-46.32 342.58,-45.84"/>
</g>
<!-- Func_calc_s_table_based_values -->
<g id="node3" class="node">
<title>Func_calc_s_table_based_values</title>
<polygon fill="lightgreen" stroke="white" points="237,-108 0,-108 0,-72 237,-72 237,-108"/>
<text text-anchor="middle" x="118.5" y="-86.3" font-family="Times,serif" font-size="14.00">AES calc_s_table_based_values</text>
</g>
<!-- Func_calc_s_table_based_values&#45;&gt;Func_STable -->
<g id="edge3" class="edge">
<title>Func_calc_s_table_based_values&#45;&gt;Func_STable</title>
<path fill="none" stroke="white" d="M170.58,-71.97C200.74,-62.1 238.89,-49.62 270.58,-39.25"/>
<polygon fill="white" stroke="white" points="271.77,-42.55 280.19,-36.11 269.6,-35.89 271.77,-42.55"/>
</g>
<!-- Func_encrypt -->
<g id="node4" class="node">
<title>Func_encrypt</title>
<polygon fill="lightgreen" stroke="white" points="373.5,-252 267.5,-252 267.5,-216 373.5,-216 373.5,-252"/>
<text text-anchor="middle" x="320.5" y="-230.3" font-family="Times,serif" font-size="14.00">AES encrypt</text>
</g>
<!-- Func_encrypt&#45;&gt;Func_substitution_S -->
<g id="edge4" class="edge">
<title>Func_encrypt&#45;&gt;Func_substitution_S</title>
<path fill="none" stroke="white" d="M321.95,-215.87C323.99,-191.67 327.75,-147.21 330.19,-118.39"/>
<polygon fill="white" stroke="white" points="333.69,-118.45 331.05,-108.19 326.72,-117.86 333.69,-118.45"/>
</g>
<!-- Func_enc_key_schedule -->
<g id="node5" class="node">
<title>Func_enc_key_schedule</title>
<polygon fill="lightgreen" stroke="white" points="219,-180 42,-180 42,-144 219,-144 219,-180"/>
<text text-anchor="middle" x="130.5" y="-158.3" font-family="Times,serif" font-size="14.00">AES enc_key_schedule</text>
</g>
<!-- Func_encrypt&#45;&gt;Func_enc_key_schedule -->
<g id="edge5" class="edge">
<title>Func_encrypt&#45;&gt;Func_enc_key_schedule</title>
<path fill="none" stroke="white" d="M274.02,-215.88C247.58,-206.14 214.3,-193.87 186.44,-183.61"/>
<polygon fill="white" stroke="white" points="187.42,-180.24 176.83,-180.07 185,-186.81 187.42,-180.24"/>
</g>
<!-- Func_enc_key_schedule&#45;&gt;Func_calc_s_table_based_values -->
<g id="edge6" class="edge">
<title>Func_enc_key_schedule&#45;&gt;Func_calc_s_table_based_values</title>
<path fill="none" stroke="white" d="M127.53,-143.7C126.21,-135.98 124.62,-126.71 123.15,-118.11"/>
<polygon fill="white" stroke="white" points="126.57,-117.37 121.43,-108.1 119.67,-118.55 126.57,-117.37"/>
</g>
<!-- Func_init_decryption_key -->
<g id="node6" class="node">
<title>Func_init_decryption_key</title>
<polygon fill="lightgreen" stroke="white" points="225.5,-252 35.5,-252 35.5,-216 225.5,-216 225.5,-252"/>
<text text-anchor="middle" x="130.5" y="-230.3" font-family="Times,serif" font-size="14.00">AES init_decryption_key</text>
</g>
<!-- Func_init_decryption_key&#45;&gt;Func_enc_key_schedule -->
<g id="edge7" class="edge">
<title>Func_init_decryption_key&#45;&gt;Func_enc_key_schedule</title>
<path fill="none" stroke="white" d="M130.5,-215.7C130.5,-207.98 130.5,-198.71 130.5,-190.11"/>
<polygon fill="white" stroke="white" points="134,-190.1 130.5,-180.1 127,-190.1 134,-190.1"/>
</g>
<!-- Block_main -->
<g id="node7" class="node">
<title>Block_main</title>
<text text-anchor="middle" x="320.5" y="-302.3" font-family="Times,serif" font-size="14.00" fill="white">...</text>
</g>
<!-- Block_main&#45;&gt;Func_encrypt -->
<g id="edge8" class="edge">
<title>Block_main&#45;&gt;Func_encrypt</title>
<path fill="none" stroke="white" d="M320.5,-287.7C320.5,-279.98 320.5,-270.71 320.5,-262.11"/>
<polygon fill="white" stroke="white" points="324,-262.1 320.5,-252.1 317,-262.1 324,-262.1"/>
</g>
</g>
</svg>
