<?xml version="1.0" encoding="UTF-8" standalone="no"?>
<!DOCTYPE svg PUBLIC "-//W3C//DTD SVG 1.1//EN"
 "http://www.w3.org/Graphics/SVG/1.1/DTD/svg11.dtd">
<!-- Generated by graphviz version 2.43.0 (0)
 -->
<!-- Title: %3 Pages: 1 -->
<svg width="490pt" height="332pt"
 viewBox="0.00 0.00 490.00 332.00" xmlns="http://www.w3.org/2000/svg" xmlns:xlink="http://www.w3.org/1999/xlink">
<g id="graph0" class="graph" transform="scale(1 1) rotate(0) translate(4 328)">
<title>%3</title>
<polygon fill="black" stroke="transparent" points="-4,4 -4,-328 486,-328 486,4 -4,4"/>
<!-- Func_STable -->
<g id="node1" class="node">
<title>Func_STable</title>
<polygon fill="lightgreen" stroke="white" points="412,-36 320,-36 320,0 412,0 412,-36"/>
<text text-anchor="middle" x="366" y="-14.3" font-family="Times,serif" font-size="14.00">AES S&#45;Box</text>
</g>
<!-- Func_1 -->
<g id="node2" class="node">
<title>Func_1</title>
<polygon fill="black" stroke="white" points="482,-108 250,-108 250,-72 482,-72 482,-108"/>
<text text-anchor="middle" x="366" y="-86.3" font-family="Times,serif" font-size="14.00" fill="white">AES Func 1 (371 instructions)</text>
</g>
<!-- Func_1&#45;&gt;Func_STable -->
<g id="edge1" class="edge">
<title>Func_1&#45;&gt;Func_STable</title>
<path fill="none" stroke="white" d="M360.08,-71.7C359.29,-63.98 359.06,-54.71 359.4,-46.11"/>
<polygon fill="white" stroke="white" points="362.9,-46.32 360.1,-36.1 355.92,-45.84 362.9,-46.32"/>
</g>
<!-- Func_1&#45;&gt;Func_STable -->
<g id="edge2" class="edge">
<title>Func_1&#45;&gt;Func_STable</title>
<path fill="none" stroke="white" d="M371.92,-71.7C372.71,-63.98 372.94,-54.71 372.6,-46.11"/>
<polygon fill="white" stroke="white" points="376.08,-45.84 371.9,-36.1 369.1,-46.32 376.08,-45.84"/>
</g>
<!-- Func_2 -->
<g id="node3" class="node">
<title>Func_2</title>
<polygon fill="black" stroke="white" points="232,-108 0,-108 0,-72 232,-72 232,-108"/>
<text text-anchor="middle" x="116" y="-86.3" font-family="Times,serif" font-size="14.00" fill="white">AES Func 2 (106 instructions)</text>
</g>
<!-- Func_2&#45;&gt;Func_STable -->
<g id="edge3" class="edge">
<title>Func_2&#45;&gt;Func_STable</title>
<path fill="none" stroke="white" d="M176.84,-71.97C217.48,-60.59 270.53,-45.73 310.1,-34.65"/>
<polygon fill="white" stroke="white" points="311.17,-37.99 319.86,-31.92 309.29,-31.25 311.17,-37.99"/>
</g>
<!-- Func_3 -->
<g id="node4" class="node">
<title>Func_3</title>
<polygon fill="black" stroke="white" points="474.5,-252 251.5,-252 251.5,-216 474.5,-216 474.5,-252"/>
<text text-anchor="middle" x="363" y="-230.3" font-family="Times,serif" font-size="14.00" fill="white">AES Func 3 (24 instructions)</text>
</g>
<!-- Func_3&#45;&gt;Func_1 -->
<g id="edge4" class="edge">
<title>Func_3&#45;&gt;Func_1</title>
<path fill="none" stroke="white" d="M363.36,-215.87C363.87,-191.67 364.81,-147.21 365.42,-118.39"/>
<polygon fill="white" stroke="white" points="368.92,-118.26 365.64,-108.19 361.93,-118.11 368.92,-118.26"/>
</g>
<!-- Func_4 -->
<g id="node5" class="node">
<title>Func_4</title>
<polygon fill="black" stroke="white" points="229.5,-180 6.5,-180 6.5,-144 229.5,-144 229.5,-180"/>
<text text-anchor="middle" x="118" y="-158.3" font-family="Times,serif" font-size="14.00" fill="white">AES Func 4 (36 instructions)</text>
</g>
<!-- Func_3&#45;&gt;Func_4 -->
<g id="edge5" class="edge">
<title>Func_3&#45;&gt;Func_4</title>
<path fill="none" stroke="white" d="M303.38,-215.97C268.55,-206.01 224.42,-193.41 187.96,-182.99"/>
<polygon fill="white" stroke="white" points="188.46,-179.49 177.89,-180.11 186.54,-186.22 188.46,-179.49"/>
</g>
<!-- Func_4&#45;&gt;Func_2 -->
<g id="edge6" class="edge">
<title>Func_4&#45;&gt;Func_2</title>
<path fill="none" stroke="white" d="M117.51,-143.7C117.29,-135.98 117.02,-126.71 116.77,-118.11"/>
<polygon fill="white" stroke="white" points="120.27,-118 116.49,-108.1 113.28,-118.2 120.27,-118"/>
</g>
<!-- Func_5 -->
<g id="node6" class="node">
<title>Func_5</title>
<polygon fill="black" stroke="white" points="229.5,-252 6.5,-252 6.5,-216 229.5,-216 229.5,-252"/>
<text text-anchor="middle" x="118" y="-230.3" font-family="Times,serif" font-size="14.00" fill="white">AES Func 5 (10 instructions)</text>
</g>
<!-- Func_5&#45;&gt;Func_4 -->
<g id="edge7" class="edge">
<title>Func_5&#45;&gt;Func_4</title>
<path fill="none" stroke="white" d="M118,-215.7C118,-207.98 118,-198.71 118,-190.11"/>
<polygon fill="white" stroke="white" points="121.5,-190.1 118,-180.1 114.5,-190.1 121.5,-190.1"/>
</g>
<!-- Block_main -->
<g id="node7" class="node">
<title>Block_main</title>
<text text-anchor="middle" x="363" y="-302.3" font-family="Times,serif" font-size="14.00" fill="white">...</text>
</g>
<!-- Block_main&#45;&gt;Func_3 -->
<g id="edge8" class="edge">
<title>Block_main&#45;&gt;Func_3</title>
<path fill="none" stroke="white" d="M363,-287.7C363,-279.98 363,-270.71 363,-262.11"/>
<polygon fill="white" stroke="white" points="366.5,-262.1 363,-252.1 359.5,-262.1 366.5,-262.1"/>
</g>
</g>
</svg>
