<?xml version="1.0" encoding="UTF-8" standalone="no"?>
<svg
   width="200.67587"
   height="15.8594"
   viewBox="0 0 200.67587 15.8594"
   fill="none"
   version="1.1"
   id="svg12"
   sodipodi:docname="unlocked.svg"
   inkscape:version="1.2.2 (b0a8486541, 2022-12-01)"
   xmlns:inkscape="http://www.inkscape.org/namespaces/inkscape"
   xmlns:sodipodi="http://sodipodi.sourceforge.net/DTD/sodipodi-0.dtd"
   xmlns="http://www.w3.org/2000/svg"
   xmlns:svg="http://www.w3.org/2000/svg">
  <defs
     id="defs16" />
  <sodipodi:namedview
     id="namedview14"
     pagecolor="#808080"
     bordercolor="#666666"
     borderopacity="1.0"
     inkscape:showpageshadow="2"
     inkscape:pageopacity="0"
     inkscape:pagecheckerboard="0"
     inkscape:deskcolor="#d1d1d1"
     showgrid="false"
     inkscape:zoom="4.3702648"
     inkscape:cx="100.10835"
     inkscape:cy="-15.10206"
     inkscape:window-width="1678"
     inkscape:window-height="882"
     inkscape:window-x="0"
     inkscape:window-y="0"
     inkscape:window-maximized="0"
     inkscape:current-layer="svg12" />
  <path
     d="M 1.13282,13.5938 H 0 V 0 h 2.26563 v 12.4609 h 1.13281 v 1.1329 H 7.92969 V 12.4609 H 9.06248 V 0 h 2.2656 v 13.5938 h -1.1328 v 1.1328 h -1.1328 v 1.1328 H 2.26563 V 14.7266 H 1.13282 Z M 29.31538,6.7969 v 9.0625 h -2.2656 V 0 h 2.2656 v 3.3984 h 1.1328 v 1.1329 h 1.1328 v 1.1328 h 1.1328 v 1.1328 h 1.1329 v 1.1328 h 1.1328 v 1.1328 h 1.1328 V 0 h 2.2656 v 15.8594 h -2.2656 v -3.3985 h -1.1328 v -1.1328 h -1.1328 v -1.1328 h -1.1329 V 9.0625 h -1.1328 V 7.9297 h -1.1328 V 6.7969 Z m 24.7841,9.0625 V 0 h 2.2657 v 13.5938 h 9.0625 v 2.2656 z M 89.07898,2.2656 h -4.5313 v 1.1328 h -1.1328 v 9.0625 h 1.1328 v 1.1329 h 4.5313 v -1.1329 h 1.1328 V 3.3984 h -1.1328 z m -7.9297,0 h 1.1328 V 1.1328 h 1.1328 V 0 h 6.7969 v 1.1328 h 1.1328 v 1.1328 h 1.1328 v 11.3282 h -1.1328 v 1.1328 h -1.1328 v 1.1328 h -6.7969 v -1.1328 h -1.1328 v -1.1328 h -1.1328 z m 30.4486,11.3282 h 4.531 v -1.1329 h 1.133 v -1.1328 h 2.265 v 2.2657 h -1.133 v 1.1328 h -1.132 v 1.1328 h -6.797 v -1.1328 h -1.133 v -1.1328 h -1.133 V 2.2656 h 1.133 V 1.1328 h 1.133 V 0 h 6.797 v 1.1328 h 1.132 v 1.1328 h 1.133 v 2.2657 h -2.265 V 3.3984 h -1.133 V 2.2656 h -4.531 v 1.1328 h -1.133 v 9.0625 h 1.133 z m 25.917,-4.5313 v 6.7969 h -2.266 V 0 h 2.266 v 6.7969 h 1.132 V 5.6641 h 1.133 V 4.5313 h 1.133 V 3.3984 h 1.133 V 2.2656 h 1.133 V 1.1328 h 1.132 V 0 h 2.266 v 2.2656 h -1.133 v 1.1328 h -1.133 v 1.1329 h -1.132 v 1.1328 h -1.133 v 1.1328 h -1.133 v 2.2656 h 1.133 v 1.1328 h 1.133 v 1.1328 h 1.132 v 1.1328 h 1.133 v 1.1329 h 1.133 v 2.2656 h -2.266 v -1.1328 h -1.132 v -1.1328 h -1.133 v -1.1329 h -1.133 v -1.1328 h -1.133 v -1.1328 h -1.133 V 9.0625 Z M 173.62688,0 v 2.2656 h -9.063 v 4.5313 h 6.797 v 2.2656 h -6.797 v 4.5313 h 9.063 v 2.2656 h -11.328 V 0 Z m 17.987,2.2656 v 11.3282 h 5.664 v -1.1329 h 1.133 V 3.3984 h -1.133 V 2.2656 Z M 189.34788,0 h 9.063 v 1.1328 h 1.133 v 1.1328 h 1.132 v 11.3282 h -1.132 v 1.1328 h -1.133 v 1.1328 h -9.063 z"
     fill="#ffffff"
     id="path10" />
</svg>
